<?xml version="1.0" encoding="UTF-8" standalone="no"?>
<!-- Created with Inkscape (http://www.inkscape.org/) -->

<svg
   width="110mm"
   height="110mm"
   viewBox="0 0 110 110"
   version="1.1"
   id="svg1"
   xmlns="http://www.w3.org/2000/svg"
   xmlns:svg="http://www.w3.org/2000/svg">
  <defs
     id="defs1" />
  <g
     id="layer1"
     style="stroke:#ffffff;stroke-opacity:1">
    <path
       id="path1"
       style="display:inline;fill:none;stroke:#ffffff;stroke-width:3;stroke-opacity:1"
       d="M 105,55 A 50,50 0 0 1 55,105 50,50 0 0 1 5,55 50,50 0 0 1 55,5 50,50 0 0 1 105,55 Z" />
    <path
       d="m 33.374723,54.982363 q 0,3.915836 -1.340557,6.843894 -1.305278,2.89278 -3.880558,4.515559 -2.575279,1.622778 -6.385282,1.622778 -3.915836,0 -6.526393,-1.622778 -2.57528,-1.622779 -3.845281,-4.550837 -1.27,-2.928057 -1.27,-6.843893 0,-3.880559 1.27,-6.773338 1.270001,-2.89278 3.845281,-4.515559 2.610557,-1.622779 6.561671,-1.622779 3.774725,0 6.350004,1.622779 2.57528,1.587501 3.880558,4.515559 1.340557,2.892779 1.340557,6.808615 z m -19.89668,0 q 0,4.762504 2.010834,7.514172 2.010835,2.716391 6.279449,2.716391 4.303892,0 6.279449,-2.716391 1.975557,-2.751668 1.975557,-7.514172 0,-4.762503 -1.975557,-7.443616 -1.975557,-2.71639 -6.244171,-2.71639 -4.268614,0 -6.314727,2.71639 -2.010834,2.681113 -2.010834,7.443616 z M 45.616125,42.423466 q 4.938892,0 7.196671,1.940279 2.257779,1.940279 2.257779,5.468059 0,2.081391 -0.9525,3.915836 -0.917223,1.799168 -3.139725,2.928058 -2.187223,1.12889 -5.961948,1.12889 h -2.89278 v 9.807228 H 38.94862 v -25.18835 z m -0.282223,2.716391 h -3.21028 v 9.94834 h 2.540002 q 3.598336,0 5.362226,-1.164168 1.76389,-1.164167 1.76389,-3.951113 0,-2.434169 -1.552223,-3.633614 -1.552224,-1.199445 -4.903615,-1.199445 z M 74.367515,67.611816 H 60.291672 v -25.18835 h 14.075843 v 2.786946 H 63.466674 v 7.86695 h 10.26584 v 2.751669 h -10.26584 v 8.995839 h 10.900841 z m 25.505841,0 H 96.169187 L 82.693067,46.69208 h -0.141111 q 0.07055,1.234723 0.176389,3.069169 0.105833,1.834446 0.105833,3.774725 v 14.075842 h -2.928057 v -25.18835 h 3.668891 l 13.440842,20.849181 h 0.141111 q -0.03528,-0.564445 -0.105833,-1.693335 -0.03528,-1.128889 -0.105833,-2.469446 -0.03528,-1.340556 -0.03528,-2.469446 V 42.423466 h 2.963335 z"
       id="text1"
       style="font-size:35.2778px;-inkscape-font-specification:'sans-serif, Normal';fill:#ffffff;stroke-width:0.264583"
       aria-label="OPEN" />
  </g>
</svg>
