<?xml version="1.0" encoding="UTF-8" standalone="no"?>
<!-- Created with Inkscape (http://www.inkscape.org/) -->

<svg
   width="110mm"
   height="110mm"
   viewBox="0 0 110 110"
   version="1.1"
   id="svg1"
   xmlns="http://www.w3.org/2000/svg"
   xmlns:svg="http://www.w3.org/2000/svg">
  <defs
     id="defs1" />
  <g
     id="layer1"
     style="stroke:#ffffff;stroke-opacity:1">
    <path
       d="m 64.920482,22.978645 v 28.36335 H 61.110479 L 60.422562,47.58491 h -0.211667 q -1.375834,2.222501 -3.810002,3.280835 -2.434168,1.005417 -5.185836,1.005417 -5.13292,0 -7.725838,-2.434168 -2.592918,-2.487085 -2.592918,-7.884588 V 22.978645 h 4.709586 v 18.256261 q 0,6.773337 6.297087,6.773337 4.709586,0 6.508754,-2.645835 1.852084,-2.645835 1.852084,-7.620004 V 22.978645 Z m 27.463769,20.531679 q 0,4.127502 -3.069169,6.24417 -3.069168,2.116668 -8.255005,2.116668 -2.963335,0 -5.132919,-0.47625 -2.116668,-0.47625 -3.757086,-1.322918 v -4.233335 q 1.693334,0.846667 4.074586,1.587501 2.434168,0.687917 4.921253,0.687917 3.545418,0 5.132919,-1.111251 1.587501,-1.164167 1.587501,-3.069169 0,-1.058334 -0.582083,-1.905001 -0.582084,-0.846667 -2.116668,-1.693334 -1.481668,-0.846667 -4.286253,-1.905001 -2.751668,-1.058334 -4.709586,-2.116668 -1.957918,-1.058334 -3.016252,-2.540002 -1.058334,-1.481667 -1.058334,-3.810002 0,-3.598335 2.910419,-5.556253 2.963335,-1.957918 7.725838,-1.957918 2.592918,0 4.815419,0.529167 2.275418,0.47625 4.233336,1.375834 l -1.587501,3.704169 q -1.799168,-0.740834 -3.757085,-1.270001 -1.957918,-0.529167 -4.02167,-0.529167 -2.857501,0 -4.392086,0.952501 -1.481667,0.899584 -1.481667,2.487085 0,1.164167 0.687917,2.010834 0.687917,0.793751 2.275418,1.587501 1.640418,0.740834 4.339169,1.799168 2.698752,1.005417 4.603753,2.063751 1.905001,1.058334 2.910418,2.592918 1.005418,1.481668 1.005418,3.757086 z M 110.21718,22.449478 q 3.65125,0 6.24417,1.587501 2.64584,1.587501 4.02167,4.497919 1.42875,2.857502 1.42875,6.720421 v 2.804585 h -19.42043 q 0.10584,4.815419 2.43417,7.355421 2.38125,2.487085 6.61459,2.487085 2.69875,0 4.7625,-0.47625 2.11667,-0.529167 4.33917,-1.481668 v 4.074586 q -2.16958,0.9525 -4.28625,1.375834 -2.11667,0.47625 -5.02709,0.47625 -4.02167,0 -7.14375,-1.640417 -3.06917,-1.640418 -4.81542,-4.868337 -1.693335,-3.280835 -1.693335,-7.990421 0,-4.65667 1.534584,-7.990422 1.587501,-3.333752 4.392091,-5.132919 2.8575,-1.799168 6.61458,-1.799168 z m -0.0529,3.810002 q -3.33376,0 -5.29167,2.169585 -1.905,2.116668 -2.27542,5.92667 h 14.44626 q -0.0529,-3.598335 -1.69334,-5.820837 -1.64042,-2.275418 -5.18583,-2.275418 z"
       id="text1"
       style="font-size:52.9167px;-inkscape-font-specification:'sans-serif, Normal';fill:#ffffff;fill-opacity:1;stroke:#ffffff;stroke-width:0;stroke-opacity:1"
       transform="scale(0.67564217,1.4800734)"
       aria-label="use" />
    <path
       id="path1"
       style="display:inline;fill:none;stroke:#ffffff;stroke-width:3;stroke-opacity:1"
       d="M 105,55 A 50,50 0 0 1 55,105 50,50 0 0 1 5,55 50,50 0 0 1 55,5 50,50 0 0 1 105,55 Z" />
  </g>
</svg>
